<svg xmlns="http://www.w3.org/2000/svg" xmlns:xlink="http://www.w3.org/1999/xlink" xmlns:lucid="lucid" width="1020" height="565.33"><g transform="translate(-280 -140)" lucid:page-tab-id="0_0"><path d="M0 0h1870.87v1322.83H0z" fill="#fff"/><path d="M700 406a6 6 0 0 1 6-6h148a6 6 0 0 1 6 6v48a6 6 0 0 1-6 6H706a6 6 0 0 1-6-6z" stroke="#3a414a" fill="#fff"/><use xlink:href="#a" transform="matrix(1,0,0,1,705,405) translate(4.7222222222222285 30.27777777777778)"/><use xlink:href="#b" transform="matrix(1,0,0,1,705,405) translate(61.45061728395062 30.27777777777778)"/><path d="M880 506a6 6 0 0 1 6-6h148a6 6 0 0 1 6 6v48a6 6 0 0 1-6 6H886a6 6 0 0 1-6-6z" stroke="#3a414a" fill="#fff"/><use xlink:href="#c" transform="matrix(1,0,0,1,885,505) translate(23.209876543209873 30.27777777777778)"/><path d="M520 504.33a6 6 0 0 1 6-6h148a6 6 0 0 1 6 6v51.34a6 6 0 0 1-6 6H526a6 6 0 0 1-6-6z" stroke="#3a414a" fill="#fff"/><use xlink:href="#d" transform="matrix(1,0,0,1,525,503.3333333333333) translate(54.660493827160494 17.77777777777778)"/><use xlink:href="#e" transform="matrix(1,0,0,1,525,503.3333333333333) translate(22.592592592592588 44.44444444444444)"/><path d="M600 494.87V436a6 6 0 0 1 6-6h66.56" stroke="#3a414a" stroke-width="6" fill="none"/><path d="M603 497.87h-6v-3.08h6z" stroke="#3a414a" stroke-width=".05" fill="#3a414a"/><path d="M689.83 430l-14.27 4.64v-9.28z" stroke="#3a414a" stroke-width="6" fill="#3a414a"/><path d="M863.46 430H954a6 6 0 0 1 6 6v36.56" stroke="#3a414a" stroke-width="6" fill="none"/><path d="M863.54 433h-3.07v-6h3.07z" stroke="#3a414a" stroke-width=".05" fill="#3a414a"/><path d="M960 489.83l-4.64-14.27h9.28z" stroke="#3a414a" stroke-width="6" fill="#3a414a"/><path d="M700 166a6 6 0 0 1 6-6h148a6 6 0 0 1 6 6v128a6 6 0 0 1-6 6H706a6 6 0 0 1-6-6z" stroke="#3a414a" fill="#fff"/><use xlink:href="#f" transform="matrix(1,0,0,1,705,165) translate(35.648148148148145 54.34027777777778)"/><use xlink:href="#g" transform="matrix(1,0,0,1,705,165) translate(23.827160493827158 81.00694444444446)"/><path d="M780 300.96v82.2" stroke="#3a414a" fill="none"/><path d="M780.5 300.98h-1v-.52h1z" stroke="#3a414a" stroke-width=".05" fill="#3a414a"/><path d="M780 397.92l-4.64-14.27h9.28z" stroke="#3a414a" fill="#3a414a"/><path d="M1100 608.67a6 6 0 0 1 6-6h148a6 6 0 0 1 6 6v48a6 6 0 0 1-6 6h-148a6 6 0 0 1-6-6z" stroke="#3a414a" fill="#fff"/><use xlink:href="#h" transform="matrix(1,0,0,1,1105,607.6666666666667) translate(14.537037037037038 30.27777777777778)"/><use xlink:href="#i" transform="matrix(1,0,0,1,1105,607.6666666666667) translate(62.62345679012346 30.27777777777778)"/><path d="M984 576.84v49.83a6 6 0 0 0 6 6h109.04" stroke="#3a414a" fill="none"/><path d="M984 562.07l4.63 14.27h-9.27z" stroke="#3a414a" fill="#3a414a"/><path d="M1099.54 633.17h-.52v-1h.52z" stroke="#3a414a" stroke-width=".05" fill="#3a414a"/><path d="M1080 406a6 6 0 0 1 6-6h188a6 6 0 0 1 6 6v48a6 6 0 0 1-6 6h-188a6 6 0 0 1-6-6z" stroke="#3a414a" fill="#fff"/><use xlink:href="#j" transform="matrix(1,0,0,1,1085,405) translate(24.104938271604937 30.27777777777778)"/><use xlink:href="#k" transform="matrix(1,0,0,1,1085,405) translate(117.80864197530863 30.27777777777778)"/><path d="M1180 460.96v124.86" stroke="#3a414a" fill="none"/><path d="M1180.5 460.98h-1v-.52h1z" stroke="#3a414a" stroke-width=".05" fill="#3a414a"/><path d="M1180 600.6l-4.64-14.28h9.28z" stroke="#3a414a" fill="#3a414a"/><path d="M984 499.02V436a6 6 0 0 1 6-6h73.15" stroke="#3a414a" fill="none"/><path d="M984.5 499.52h-1v-.5h1z" stroke="#3a414a" stroke-width=".05" fill="#3a414a"/><path d="M1077.92 430l-14.27 4.64v-9.28z" stroke="#3a414a" fill="#3a414a"/><path d="M300 606a6 6 0 0 1 6-6h148a6 6 0 0 1 6 6v48a6 6 0 0 1-6 6H306a6 6 0 0 1-6-6z" stroke="#3a414a" fill="#fff"/><use xlink:href="#l" transform="matrix(1,0,0,1,312,612) translate(25.469135802469133 22.27777777777778)"/><path d="M300 386a6 6 0 0 1 6-6h148a6 6 0 0 1 6 6v65.33a6 6 0 0 1-6 6H306a6 6 0 0 1-6-6z" fill="#fff"/><path d="M324.92 380.06h19.86m9.93 0l19.87-.02m9.93 0l19.85-.02m9.93 0h19.86m9.93-.02H454l.94.07.9.22.88.35.8.5.72.6.6.72.5.8.37.88.23.9v11.06m.02 11.05l.03 22.1m0 11.04l.02 11.03-.07.94-.22.92-.35.86-.5.8-.6.72-.72.6-.8.5-.88.36-.9.22H445m-9.92 0l-19.86.02m-9.93 0h-19.87m-9.93.02h-19.85m-9.93 0l-19.86.02m-9.93 0H306l-.94-.06-.9-.22-.88-.36-.8-.5-.72-.6-.6-.72-.5-.8-.37-.87-.23-.93v-11.04m-.02-11.05l-.03-22.1m0-11.03L300 386l.07-.94.22-.9.35-.88.5-.8.6-.72.72-.6.8-.5.88-.37.9-.23H315" stroke="#3a414a" fill="none"/><use xlink:href="#m" transform="matrix(1,0,0,1,312,392) translate(33.092592592592595 17.77777777777778)"/><use xlink:href="#n" transform="matrix(1,0,0,1,312,392) translate(2.0432098765432016 44.44444444444444)"/><use xlink:href="#o" transform="matrix(1,0,0,1,312,392) translate(90.80864197530865 44.44444444444444)"/><path d="M573.36 562.64V624a6 6 0 0 1-6 6h-90.5" stroke="#3a414a" fill="none"/><path d="M573.86 562.66h-1v-.52h1z" stroke="#3a414a" stroke-width=".05" fill="#3a414a"/><path d="M462.08 630l14.27-4.64v9.28z" stroke="#3a414a" fill="#3a414a"/><path d="M460.96 418.67h8.98m8.98 0h17.95m8.98 0h17.95m8.98 0h17.95m8.98 0h9l.93.07.9.22.88.36.8.5.73.6.6.72.5.8.36.87.2.93.03 9.63m0 9.62l.03 19.26m.02 9.63v9.63" stroke="#3a414a" fill="none"/><path d="M460.98 419.17h-.52v-1h.52z" stroke="#3a414a" stroke-width=".05" fill="#3a414a"/><path d="M574.7 496.26L570.04 482h9.27z" stroke="#3a414a" fill="#3a414a"/><path d="M380 599.04v-32.16" stroke="#3a414a" fill="none"/><path d="M380.5 599.54h-1v-.52h1z" stroke="#3a414a" stroke-width=".05" fill="#3a414a"/><path d="M380 552.12l4.64 14.26h-9.28z" stroke="#3a414a" fill="#3a414a"/><path d="M680 586a6 6 0 0 1 6-6h188a6 6 0 0 1 6 6v93.33a6 6 0 0 1-6 6H686a6 6 0 0 1-6-6z" stroke="#3a414a" fill="#fff"/><use xlink:href="#p" transform="matrix(1,0,0,1,692,592) translate(4.203703703703695 33.15277777777778)"/><use xlink:href="#q" transform="matrix(1,0,0,1,692,592) translate(68.3395061728395 33.15277777777778)"/><use xlink:href="#r" transform="matrix(1,0,0,1,692,592) translate(14.604938271604937 59.81944444444445)"/><use xlink:href="#s" transform="matrix(1,0,0,1,692,592) translate(65.09876543209876 59.81944444444445)"/><use xlink:href="#t" transform="matrix(1,0,0,1,692,592) translate(113.24691358024691 59.81944444444445)"/><path d="M960 563.46v63.2a6 6 0 0 1-6 6h-46.56" stroke="#3a414a" stroke-width="6" fill="none"/><path d="M963 563.54h-6v-3.08h6z" stroke="#3a414a" stroke-width=".05" fill="#3a414a"/><path d="M890.17 632.67l14.27-4.64v9.27z" stroke="#3a414a" stroke-width="6" fill="#3a414a"/><path d="M676.54 632.67H606a6 6 0 0 1-6-6V589.1" stroke="#3a414a" stroke-width="6" fill="none"/><path d="M679.54 635.67h-3.08v-6h3.07z" stroke="#3a414a" stroke-width=".05" fill="#3a414a"/><path d="M600 571.84l4.64 14.26h-9.28z" stroke="#3a414a" stroke-width="6" fill="#3a414a"/><path d="M400 530c0 11.05-8.95 20-20 20s-20-8.95-20-20 8.95-20 20-20 20 8.95 20 20zm-40 0h40m-20-20v40" stroke="#3a414a" fill="#fff"/><path d="M380 509v-11.6m0-11.6v-11.62" stroke="#3a414a" fill="none"/><path d="M380.5 509.56l-.48-.06-.52.02V509h1z" stroke="#3a414a" stroke-width=".05" fill="#3a414a"/><path d="M380 459.4l4.64 14.28h-9.28z" stroke="#3a414a" fill="#3a414a"/><path d="M401 530h102.15" stroke="#3a414a" fill="none"/><path d="M401 530.5h-.56l.06-.48-.02-.52h.53z" stroke="#3a414a" stroke-width=".05" fill="#3a414a"/><path d="M517.92 530l-14.27 4.64v-9.28z" stroke="#3a414a" fill="#3a414a"/><defs><path fill="#3a414a" d="M96-169c-40 0-48 33-48 73s9 75 48 75c24 0 41-14 43-38l32 2c-6 37-31 61-74 61-59 0-76-41-82-99-10-93 101-131 147-64 4 7 5 14 7 22l-32 3c-4-21-16-35-41-35" id="u"/><path fill="#3a414a" d="M179-190L93 31C79 59 56 82 12 73V49c39 6 53-20 64-50L1-190h34L92-34l54-156h33" id="v"/><path fill="#3a414a" d="M24 0v-261h32V0H24" id="w"/><path fill="#3a414a" d="M100-194c63 0 86 42 84 106H49c0 40 14 67 53 68 26 1 43-12 49-29l28 8c-11 28-37 45-77 45C44 4 14-33 15-96c1-61 26-98 85-98zm52 81c6-60-76-77-97-28-3 7-6 17-6 28h103" id="x"/><g id="a"><use transform="matrix(0.06172839506172839,0,0,0.06172839506172839,0,0)" xlink:href="#u"/><use transform="matrix(0.06172839506172839,0,0,0.06172839506172839,11.11111111111111,0)" xlink:href="#v"/><use transform="matrix(0.06172839506172839,0,0,0.06172839506172839,22.22222222222222,0)" xlink:href="#u"/><use transform="matrix(0.06172839506172839,0,0,0.06172839506172839,33.33333333333333,0)" xlink:href="#w"/><use transform="matrix(0.06172839506172839,0,0,0.06172839506172839,38.20987654320987,0)" xlink:href="#x"/></g><path fill="#3a414a" d="M115-194c53 0 69 39 70 98 0 66-23 100-70 100C84 3 66-7 56-30L54 0H23l1-261h32v101c10-23 28-34 59-34zm-8 174c40 0 45-34 45-75 0-40-5-75-45-74-42 0-51 32-51 76 0 43 10 73 51 73" id="y"/><path fill="#3a414a" d="M177-190C167-65 218 103 67 71c-23-6-38-20-44-43l32-5c15 47 100 32 89-28v-30C133-14 115 1 83 1 29 1 15-40 15-95c0-56 16-97 71-98 29-1 48 16 59 35 1-10 0-23 2-32h30zM94-22c36 0 50-32 50-73 0-42-14-75-50-75-39 0-46 34-46 75s6 73 46 73" id="z"/><path fill="#3a414a" d="M24-231v-30h32v30H24zM24 0v-190h32V0H24" id="A"/><path fill="#3a414a" d="M117-194c89-4 53 116 60 194h-32v-121c0-31-8-49-39-48C34-167 62-67 57 0H25l-1-190h30c1 10-1 24 2 32 11-22 29-35 61-36" id="B"/><g id="b"><use transform="matrix(0.06172839506172839,0,0,0.06172839506172839,0,0)" xlink:href="#y"/><use transform="matrix(0.06172839506172839,0,0,0.06172839506172839,12.345679012345679,0)" xlink:href="#x"/><use transform="matrix(0.06172839506172839,0,0,0.06172839506172839,24.691358024691358,0)" xlink:href="#z"/><use transform="matrix(0.06172839506172839,0,0,0.06172839506172839,37.03703703703704,0)" xlink:href="#A"/><use transform="matrix(0.06172839506172839,0,0,0.06172839506172839,41.91358024691358,0)" xlink:href="#B"/><use transform="matrix(0.06172839506172839,0,0,0.06172839506172839,54.25925925925926,0)" xlink:href="#A"/><use transform="matrix(0.06172839506172839,0,0,0.06172839506172839,59.135802469135804,0)" xlink:href="#B"/><use transform="matrix(0.06172839506172839,0,0,0.06172839506172839,71.48148148148148,0)" xlink:href="#z"/></g><path fill="#3a414a" d="M210-169c-67 3-38 105-44 169h-31v-121c0-29-5-50-35-48C34-165 62-65 56 0H25l-1-190h30c1 10-1 24 2 32 10-44 99-50 107 0 11-21 27-35 58-36 85-2 47 119 55 194h-31v-121c0-29-5-49-35-48" id="C"/><path fill="#3a414a" d="M100-194c62-1 85 37 85 99 1 63-27 99-86 99S16-35 15-95c0-66 28-99 85-99zM99-20c44 1 53-31 53-75 0-43-8-75-51-75s-53 32-53 75 10 74 51 75" id="D"/><path fill="#3a414a" d="M108 0H70L1-190h34L89-25l56-165h34" id="E"/><path fill="#3a414a" d="M59-47c-2 24 18 29 38 22v24C64 9 27 4 27-40v-127H5v-23h24l9-43h21v43h35v23H59v120" id="F"/><g id="c"><use transform="matrix(0.06172839506172839,0,0,0.06172839506172839,0,0)" xlink:href="#C"/><use transform="matrix(0.06172839506172839,0,0,0.06172839506172839,18.456790123456788,0)" xlink:href="#D"/><use transform="matrix(0.06172839506172839,0,0,0.06172839506172839,30.80246913580247,0)" xlink:href="#E"/><use transform="matrix(0.06172839506172839,0,0,0.06172839506172839,41.91358024691358,0)" xlink:href="#x"/><use transform="matrix(0.06172839506172839,0,0,0.06172839506172839,54.25925925925926,0)" xlink:href="#C"/><use transform="matrix(0.06172839506172839,0,0,0.06172839506172839,72.71604938271605,0)" xlink:href="#x"/><use transform="matrix(0.06172839506172839,0,0,0.06172839506172839,85.06172839506173,0)" xlink:href="#B"/><use transform="matrix(0.06172839506172839,0,0,0.06172839506172839,97.40740740740742,0)" xlink:href="#F"/></g><path fill="#3a414a" d="M206 0h-36l-40-164L89 0H53L-1-190h32L70-26l43-164h34l41 164 42-164h31" id="G"/><g id="d"><use transform="matrix(0.06172839506172839,0,0,0.06172839506172839,0,0)" xlink:href="#B"/><use transform="matrix(0.06172839506172839,0,0,0.06172839506172839,12.345679012345679,0)" xlink:href="#x"/><use transform="matrix(0.06172839506172839,0,0,0.06172839506172839,24.691358024691358,0)" xlink:href="#G"/></g><path fill="#3a414a" d="M114-163C36-179 61-72 57 0H25l-1-190h30c1 12-1 29 2 39 6-27 23-49 58-41v29" id="H"/><path fill="#3a414a" d="M141-36C126-15 110 5 73 4 37 3 15-17 15-53c-1-64 63-63 125-63 3-35-9-54-41-54-24 1-41 7-42 31l-33-3c5-37 33-52 76-52 45 0 72 20 72 64v82c-1 20 7 32 28 27v20c-31 9-61-2-59-35zM48-53c0 20 12 33 32 33 41-3 63-29 60-74-43 2-92-5-92 41" id="I"/><g id="e"><use transform="matrix(0.06172839506172839,0,0,0.06172839506172839,0,0)" xlink:href="#z"/><use transform="matrix(0.06172839506172839,0,0,0.06172839506172839,12.345679012345679,0)" xlink:href="#x"/><use transform="matrix(0.06172839506172839,0,0,0.06172839506172839,24.691358024691358,0)" xlink:href="#B"/><use transform="matrix(0.06172839506172839,0,0,0.06172839506172839,37.03703703703704,0)" xlink:href="#x"/><use transform="matrix(0.06172839506172839,0,0,0.06172839506172839,49.382716049382715,0)" xlink:href="#H"/><use transform="matrix(0.06172839506172839,0,0,0.06172839506172839,56.72839506172839,0)" xlink:href="#I"/><use transform="matrix(0.06172839506172839,0,0,0.06172839506172839,69.07407407407408,0)" xlink:href="#F"/><use transform="matrix(0.06172839506172839,0,0,0.06172839506172839,75.24691358024691,0)" xlink:href="#A"/><use transform="matrix(0.06172839506172839,0,0,0.06172839506172839,80.12345679012346,0)" xlink:href="#D"/><use transform="matrix(0.06172839506172839,0,0,0.06172839506172839,92.46913580246914,0)" xlink:href="#B"/></g><path fill="#3a414a" d="M135-143c-3-34-86-38-87 0 15 53 115 12 119 90S17 21 10-45l28-5c4 36 97 45 98 0-10-56-113-15-118-90-4-57 82-63 122-42 12 7 21 19 24 35" id="J"/><g id="f"><use transform="matrix(0.06172839506172839,0,0,0.06172839506172839,0,0)" xlink:href="#A"/><use transform="matrix(0.06172839506172839,0,0,0.06172839506172839,4.876543209876543,0)" xlink:href="#B"/><use transform="matrix(0.06172839506172839,0,0,0.06172839506172839,17.22222222222222,0)" xlink:href="#A"/><use transform="matrix(0.06172839506172839,0,0,0.06172839506172839,22.098765432098766,0)" xlink:href="#F"/><use transform="matrix(0.06172839506172839,0,0,0.06172839506172839,28.271604938271604,0)" xlink:href="#A"/><use transform="matrix(0.06172839506172839,0,0,0.06172839506172839,33.148148148148145,0)" xlink:href="#I"/><use transform="matrix(0.06172839506172839,0,0,0.06172839506172839,45.49382716049382,0)" xlink:href="#w"/><use transform="matrix(0.06172839506172839,0,0,0.06172839506172839,50.37037037037037,0)" xlink:href="#A"/><use transform="matrix(0.06172839506172839,0,0,0.06172839506172839,55.24691358024691,0)" xlink:href="#J"/><use transform="matrix(0.06172839506172839,0,0,0.06172839506172839,66.35802469135803,0)" xlink:href="#x"/></g><path fill="#3a414a" d="M115-194c55 1 70 41 70 98S169 2 115 4C84 4 66-9 55-30l1 105H24l-1-265h31l2 30c10-21 28-34 59-34zm-8 174c40 0 45-34 45-75s-6-73-45-74c-42 0-51 32-51 76 0 43 10 73 51 73" id="K"/><path fill="#3a414a" d="M84 4C-5 8 30-112 23-190h32v120c0 31 7 50 39 49 72-2 45-101 50-169h31l1 190h-30c-1-10 1-25-2-33-11 22-28 36-60 37" id="L"/><g id="g"><use transform="matrix(0.06172839506172839,0,0,0.06172839506172839,0,0)" xlink:href="#K"/><use transform="matrix(0.06172839506172839,0,0,0.06172839506172839,12.345679012345679,0)" xlink:href="#D"/><use transform="matrix(0.06172839506172839,0,0,0.06172839506172839,24.691358024691358,0)" xlink:href="#K"/><use transform="matrix(0.06172839506172839,0,0,0.06172839506172839,37.03703703703704,0)" xlink:href="#L"/><use transform="matrix(0.06172839506172839,0,0,0.06172839506172839,49.382716049382715,0)" xlink:href="#w"/><use transform="matrix(0.06172839506172839,0,0,0.06172839506172839,54.25925925925926,0)" xlink:href="#I"/><use transform="matrix(0.06172839506172839,0,0,0.06172839506172839,66.60493827160494,0)" xlink:href="#F"/><use transform="matrix(0.06172839506172839,0,0,0.06172839506172839,72.77777777777777,0)" xlink:href="#A"/><use transform="matrix(0.06172839506172839,0,0,0.06172839506172839,77.65432098765432,0)" xlink:href="#D"/><use transform="matrix(0.06172839506172839,0,0,0.06172839506172839,90,0)" xlink:href="#B"/></g><g id="h"><use transform="matrix(0.06172839506172839,0,0,0.06172839506172839,0,0)" xlink:href="#J"/><use transform="matrix(0.06172839506172839,0,0,0.06172839506172839,11.11111111111111,0)" xlink:href="#L"/><use transform="matrix(0.06172839506172839,0,0,0.06172839506172839,23.45679012345679,0)" xlink:href="#C"/></g><g id="i"><use transform="matrix(0.06172839506172839,0,0,0.06172839506172839,0,0)" xlink:href="#D"/><use transform="matrix(0.06172839506172839,0,0,0.06172839506172839,12.345679012345679,0)" xlink:href="#L"/><use transform="matrix(0.06172839506172839,0,0,0.06172839506172839,24.691358024691358,0)" xlink:href="#F"/><use transform="matrix(0.06172839506172839,0,0,0.06172839506172839,30.864197530864196,0)" xlink:href="#K"/><use transform="matrix(0.06172839506172839,0,0,0.06172839506172839,43.20987654320987,0)" xlink:href="#L"/><use transform="matrix(0.06172839506172839,0,0,0.06172839506172839,55.55555555555555,0)" xlink:href="#F"/><use transform="matrix(0.06172839506172839,0,0,0.06172839506172839,61.72839506172839,0)" xlink:href="#J"/></g><g id="j"><use transform="matrix(0.06172839506172839,0,0,0.06172839506172839,0,0)" xlink:href="#u"/><use transform="matrix(0.06172839506172839,0,0,0.06172839506172839,11.11111111111111,0)" xlink:href="#I"/><use transform="matrix(0.06172839506172839,0,0,0.06172839506172839,23.45679012345679,0)" xlink:href="#w"/><use transform="matrix(0.06172839506172839,0,0,0.06172839506172839,28.333333333333336,0)" xlink:href="#u"/><use transform="matrix(0.06172839506172839,0,0,0.06172839506172839,39.44444444444444,0)" xlink:href="#L"/><use transform="matrix(0.06172839506172839,0,0,0.06172839506172839,51.79012345679012,0)" xlink:href="#w"/><use transform="matrix(0.06172839506172839,0,0,0.06172839506172839,56.666666666666664,0)" xlink:href="#I"/><use transform="matrix(0.06172839506172839,0,0,0.06172839506172839,69.01234567901234,0)" xlink:href="#F"/><use transform="matrix(0.06172839506172839,0,0,0.06172839506172839,75.18518518518518,0)" xlink:href="#x"/></g><g id="k"><use transform="matrix(0.06172839506172839,0,0,0.06172839506172839,0,0)" xlink:href="#A"/><use transform="matrix(0.06172839506172839,0,0,0.06172839506172839,4.876543209876543,0)" xlink:href="#B"/><use transform="matrix(0.06172839506172839,0,0,0.06172839506172839,17.22222222222222,0)" xlink:href="#K"/><use transform="matrix(0.06172839506172839,0,0,0.06172839506172839,29.5679012345679,0)" xlink:href="#L"/><use transform="matrix(0.06172839506172839,0,0,0.06172839506172839,41.913580246913575,0)" xlink:href="#F"/></g><g id="l"><use transform="matrix(0.06172839506172839,0,0,0.06172839506172839,0,0)" xlink:href="#C"/><use transform="matrix(0.06172839506172839,0,0,0.06172839506172839,18.456790123456788,0)" xlink:href="#L"/><use transform="matrix(0.06172839506172839,0,0,0.06172839506172839,30.80246913580247,0)" xlink:href="#F"/><use transform="matrix(0.06172839506172839,0,0,0.06172839506172839,36.97530864197531,0)" xlink:href="#I"/><use transform="matrix(0.06172839506172839,0,0,0.06172839506172839,49.32098765432099,0)" xlink:href="#F"/><use transform="matrix(0.06172839506172839,0,0,0.06172839506172839,55.49382716049383,0)" xlink:href="#A"/><use transform="matrix(0.06172839506172839,0,0,0.06172839506172839,60.370370370370374,0)" xlink:href="#D"/><use transform="matrix(0.06172839506172839,0,0,0.06172839506172839,72.71604938271605,0)" xlink:href="#B"/></g><path fill="#3a414a" d="M127-220V0H93v-220H8v-28h204v28h-85" id="M"/><path fill="#3a414a" d="M140-251c81 0 123 46 123 126C263-46 219 4 140 4 59 4 17-45 17-125s42-126 123-126zm0 227c63 0 89-41 89-101s-29-99-89-99c-61 0-89 39-89 99S79-25 140-24" id="N"/><path fill="#3a414a" d="M30-248c118-7 216 8 213 122C240-48 200 0 122 0H30v-248zM63-27c89 8 146-16 146-99s-60-101-146-95v194" id="O"/><path fill="#3a414a" d="M33-154v-36h34v36H33zM33 0v-36h34V0H33" id="P"/><g id="m"><use transform="matrix(0.06172839506172839,0,0,0.06172839506172839,0,0)" xlink:href="#M"/><use transform="matrix(0.06172839506172839,0,0,0.06172839506172839,13.08641975308642,0)" xlink:href="#N"/><use transform="matrix(0.06172839506172839,0,0,0.06172839506172839,30.370370370370367,0)" xlink:href="#O"/><use transform="matrix(0.06172839506172839,0,0,0.06172839506172839,46.35802469135802,0)" xlink:href="#N"/><use transform="matrix(0.06172839506172839,0,0,0.06172839506172839,63.641975308641975,0)" xlink:href="#P"/></g><g id="n"><use transform="matrix(0.06172839506172839,0,0,0.06172839506172839,0,0)" xlink:href="#u"/><use transform="matrix(0.06172839506172839,0,0,0.06172839506172839,11.11111111111111,0)" xlink:href="#H"/><use transform="matrix(0.06172839506172839,0,0,0.06172839506172839,18.45679012345679,0)" xlink:href="#D"/><use transform="matrix(0.06172839506172839,0,0,0.06172839506172839,30.80246913580247,0)" xlink:href="#J"/><use transform="matrix(0.06172839506172839,0,0,0.06172839506172839,41.91358024691358,0)" xlink:href="#J"/><use transform="matrix(0.06172839506172839,0,0,0.06172839506172839,53.0246913580247,0)" xlink:href="#A"/><use transform="matrix(0.06172839506172839,0,0,0.06172839506172839,57.90123456790124,0)" xlink:href="#B"/><use transform="matrix(0.06172839506172839,0,0,0.06172839506172839,70.24691358024693,0)" xlink:href="#z"/></g><g id="o"><use transform="matrix(0.06172839506172839,0,0,0.06172839506172839,0,0)" xlink:href="#D"/><use transform="matrix(0.06172839506172839,0,0,0.06172839506172839,12.345679012345679,0)" xlink:href="#E"/><use transform="matrix(0.06172839506172839,0,0,0.06172839506172839,23.45679012345679,0)" xlink:href="#x"/><use transform="matrix(0.06172839506172839,0,0,0.06172839506172839,35.80246913580247,0)" xlink:href="#H"/></g><g id="p"><use transform="matrix(0.06172839506172839,0,0,0.06172839506172839,0,0)" xlink:href="#J"/><use transform="matrix(0.06172839506172839,0,0,0.06172839506172839,11.11111111111111,0)" xlink:href="#x"/><use transform="matrix(0.06172839506172839,0,0,0.06172839506172839,23.45679012345679,0)" xlink:href="#w"/><use transform="matrix(0.06172839506172839,0,0,0.06172839506172839,28.333333333333336,0)" xlink:href="#x"/><use transform="matrix(0.06172839506172839,0,0,0.06172839506172839,40.67901234567901,0)" xlink:href="#u"/><use transform="matrix(0.06172839506172839,0,0,0.06172839506172839,51.79012345679013,0)" xlink:href="#F"/></g><path fill="#3a414a" d="M85-194c31 0 48 13 60 33l-1-100h32l1 261h-30c-2-10 0-23-3-31C134-8 116 4 85 4 32 4 16-35 15-94c0-66 23-100 70-100zm9 24c-40 0-46 34-46 75 0 40 6 74 45 74 42 0 51-32 51-76 0-42-9-74-50-73" id="Q"/><g id="q"><use transform="matrix(0.06172839506172839,0,0,0.06172839506172839,0,0)" xlink:href="#A"/><use transform="matrix(0.06172839506172839,0,0,0.06172839506172839,4.876543209876543,0)" xlink:href="#B"/><use transform="matrix(0.06172839506172839,0,0,0.06172839506172839,17.22222222222222,0)" xlink:href="#Q"/><use transform="matrix(0.06172839506172839,0,0,0.06172839506172839,29.5679012345679,0)" xlink:href="#A"/><use transform="matrix(0.06172839506172839,0,0,0.06172839506172839,34.44444444444444,0)" xlink:href="#E"/><use transform="matrix(0.06172839506172839,0,0,0.06172839506172839,45.55555555555556,0)" xlink:href="#A"/><use transform="matrix(0.06172839506172839,0,0,0.06172839506172839,50.4320987654321,0)" xlink:href="#Q"/><use transform="matrix(0.06172839506172839,0,0,0.06172839506172839,62.77777777777778,0)" xlink:href="#L"/><use transform="matrix(0.06172839506172839,0,0,0.06172839506172839,75.12345679012346,0)" xlink:href="#I"/><use transform="matrix(0.06172839506172839,0,0,0.06172839506172839,87.46913580246914,0)" xlink:href="#w"/><use transform="matrix(0.06172839506172839,0,0,0.06172839506172839,92.34567901234568,0)" xlink:href="#J"/></g><path fill="#3a414a" d="M101-234c-31-9-42 10-38 44h38v23H63V0H32v-167H5v-23h27c-7-52 17-82 69-68v24" id="R"/><g id="r"><use transform="matrix(0.06172839506172839,0,0,0.06172839506172839,0,0)" xlink:href="#R"/><use transform="matrix(0.06172839506172839,0,0,0.06172839506172839,6.172839506172839,0)" xlink:href="#H"/><use transform="matrix(0.06172839506172839,0,0,0.06172839506172839,13.518518518518519,0)" xlink:href="#D"/><use transform="matrix(0.06172839506172839,0,0,0.06172839506172839,25.864197530864196,0)" xlink:href="#C"/></g><g id="s"><use transform="matrix(0.06172839506172839,0,0,0.06172839506172839,0,0)" xlink:href="#J"/><use transform="matrix(0.06172839506172839,0,0,0.06172839506172839,11.11111111111111,0)" xlink:href="#I"/><use transform="matrix(0.06172839506172839,0,0,0.06172839506172839,23.45679012345679,0)" xlink:href="#R"/><use transform="matrix(0.06172839506172839,0,0,0.06172839506172839,29.62962962962963,0)" xlink:href="#x"/></g><path fill="#3a414a" d="M9 0v-24l116-142H16v-24h144v24L44-24h123V0H9" id="S"/><g id="t"><use transform="matrix(0.06172839506172839,0,0,0.06172839506172839,0,0)" xlink:href="#S"/><use transform="matrix(0.06172839506172839,0,0,0.06172839506172839,11.11111111111111,0)" xlink:href="#D"/><use transform="matrix(0.06172839506172839,0,0,0.06172839506172839,23.45679012345679,0)" xlink:href="#B"/><use transform="matrix(0.06172839506172839,0,0,0.06172839506172839,35.80246913580247,0)" xlink:href="#x"/></g></defs></g></svg>